<svg xmlns="http://www.w3.org/2000/svg" width="81" height="58" viewBox="0 0 81 58">
    <g fill="none" fill-rule="evenodd">
        <path fill="#0063AE" d="M4.364 51.989c-.87-.563-1.56-2.214-1.381-3.222A119.39 119.39 0 0 0 2.986 9.39c-.182-1.023.509-2.675 1.378-3.238 4.872-3.109 9.614-3.109 14.495.006.86.557 1.551 2.208 1.372 3.216a119.44 119.44 0 0 0-.003 39.378c.182 1.024-.508 2.675-1.377 3.238-4.873 3.11-9.615 3.11-14.495-.005l.008.005zm-1.622 2.523c5.864 3.744 11.866 3.744 17.73 0 1.905-1.232 3.1-4.09 2.713-6.27a116.393 116.393 0 0 1 .003-38.361c.384-2.163-.81-5.02-2.708-6.248C14.608-.115 8.606-.115 2.742 3.628.837 4.86-.358 7.718.029 9.898a116.344 116.344 0 0 1-.003 38.361c-.384 2.164.811 5.021 2.708 6.248l.008.005z"/>
        <path fill="#E20613" d="M46.608 51.895c-4.88 3.115-9.622 3.115-14.503 0-.86-.557-1.552-2.209-1.373-3.217a119.39 119.39 0 0 0 .003-39.377c-.182-1.024.51-2.676 1.378-3.238 4.873-3.11 9.615-3.11 14.495.005.861.557 1.552 2.209 1.373 3.216a119.44 119.44 0 0 0-.003 39.378c.182 1.024-.509 2.676-1.378 3.238l.008-.005zm1.622 2.524c1.897-1.227 3.092-4.085 2.705-6.265a116.393 116.393 0 0 1 .002-38.362c.385-2.163-.81-5.02-2.707-6.248C42.357-.204 36.356-.204 30.491 3.54c-1.904 1.233-3.1 4.09-2.713 6.27a116.344 116.344 0 0 1-.002 38.362c-.384 2.163.81 5.02 2.708 6.248 5.872 3.748 11.874 3.748 17.738.005l.008-.005z"/>
        <path fill="#0063AE" d="M76.402 51.895c-4.88 3.115-9.623 3.115-14.503 0-.861-.557-1.552-2.209-1.373-3.217a119.39 119.39 0 0 0 .003-39.377c-.182-1.024.509-2.676 1.378-3.238 4.872-3.11 9.614-3.11 14.495.005.86.557 1.552 2.209 1.372 3.216a119.44 119.44 0 0 0-.002 39.378c.182 1.024-.51 2.676-1.378 3.238l.008-.005zm1.621 2.524c1.897-1.227 3.093-4.085 2.705-6.265a116.393 116.393 0 0 1 .003-38.362c.385-2.163-.81-5.02-2.707-6.248C72.15-.204 66.15-.204 60.285 3.54c-1.905 1.233-3.1 4.09-2.713 6.27a116.344 116.344 0 0 1-.003 38.362c-.384 2.163.811 5.02 2.708 6.248 5.873 3.748 11.874 3.748 17.739.005l.007-.005z"/>
    </g>
</svg>
