<svg xmlns="http://www.w3.org/2000/svg" width="65" height="73" viewBox="0 0 65 73">
    <g fill="none" fill-rule="evenodd">
        <path fill="#0063AE" d="M32.403 72.574a27.21 27.21 0 0 1-11.791-2.688 26.499 26.499 0 0 1-7.402-5.262 26.066 26.066 0 0 1-3.993-5.16c-.252-.43-.615-.657-1.11-.693-3.154-.237-5.523-1.707-7.043-4.37-.981-1.719-1.285-3.629-.906-5.678.454-2.45 1.794-4.378 3.984-5.734.283-.175.616-.369.95-.484.662-.228.857-.733.945-1.092.075-.305.147-.612.22-.92.194-.822.394-1.673.659-2.473a25.349 25.349 0 0 1 4.162-7.772l.207.532.288.761c.222.588.444 1.176.686 1.755-.006.01-.02.034-.044.07a23.495 23.495 0 0 0-2.582 5.146c-.62 1.723-1.038 3.658-1.276 5.913-1.22.219-2.36.489-3.347 1.274-1.859 1.477-2.604 3.444-2.152 5.687.468 2.334 1.989 3.898 4.398 4.524.356.093.722.138 1.119.138.63 0 1.228-.115 1.807-.226 0 0 .158-.029.183-.032l.034.07c1.319 2.835 3.096 5.318 5.281 7.38a23.832 23.832 0 0 0 8.383 5.153c2.701.966 5.474 1.456 8.24 1.456 1.068 0 2.152-.073 3.225-.217 5.819-.783 10.774-3.343 14.728-7.608 1.627-1.754 2.977-3.787 4.128-6.217 0-.004.003-.008.005-.011a8.63 8.63 0 0 0 1.91.24c.861 0 1.636-.17 2.37-.52 2.193-1.046 3.563-3.42 3.33-5.775-.241-2.436-1.988-4.461-4.348-5.04l-.162-.04c-.353-.087-.718-.178-1.094-.237l-.072-.527a36.669 36.669 0 0 0-.318-2.114c-.612-3.233-1.918-6.272-3.881-9.033-1.997-2.809-4.56-5.124-7.617-6.88a24.42 24.42 0 0 0-6.022-2.452c-.4-1-.783-2.007-1.166-3.014a26.59 26.59 0 0 1 11.396 4.976c4.2 3.175 7.213 7.27 8.952 12.173.325.915.562 1.899.791 2.849.085.35.168.7.257 1.048.085.333.252.75.792.994 3.286 1.49 4.999 3.95 5.233 7.516.223 3.392-1.924 6.808-5.105 8.125a9.01 9.01 0 0 1-2.953.683c-.516.027-.896.259-1.16.707-1.371 2.33-3.137 4.461-5.252 6.338a26.621 26.621 0 0 1-5.494 3.748 27.09 27.09 0 0 1-7.762 2.616 27.22 27.22 0 0 1-4.611.397"/>
        <path fill="#E20613" d="M16.916 32.43c-.259 0-.431-.379-.494-.541l-3.08-8.005a.53.53 0 0 1 .036-.496c.089-.129.24-.2.426-.2 1.61.03 3.346.086 5.325.17l.1.002c.556 0 .96-.238 1.235-.726.637-1.13 1.534-1.798 2.744-2.036.174-.034.354-.051.534-.051.438 0 .91.1 1.489.314.166.062.32.092.471.092.454 0 .745-.282.84-.375a373.024 373.024 0 0 1 3.561-3.424c.198-.188.428-.395.638-.483a.319.319 0 0 1 .122-.027c.185 0 .388.205.506.51.253.657 1.52 3.976 1.52 3.976.52 1.354 1.04 2.708 1.544 4.069.07.189.06.363-.03.492-.096.14-.278.22-.501.22l-2.191.002v-.191l-2.236.002c-.435 0-.87-.002-1.306-.008-.52 0-.886.201-1.146.614-.727 1.155-1.882 1.817-3.168 1.817a4.09 4.09 0 0 1-1.107-.157 1.5 1.5 0 0 0-.406-.059c-.347 0-.653.136-.94.413a665.216 665.216 0 0 1-3.25 3.131l-.673.647c-.204.196-.41.308-.563.308"/>
        <path fill="#0063AE" d="M23.812 17.635c-.729-.041-1.238-.43-1.43-1.094a17.581 17.581 0 0 1-.588-3.121c-.239-2.36.11-4.6 1.035-6.657C24.1 3.939 26.185 1.923 29.026.77c.187-.076.374-.114.559-.114.366 0 .722.154 1.001.436.369.369.578.926.575 1.527-.027.408-.388.883-.964 1.233l-.363.218c-.67.4-1.361.816-1.981 1.336-1.666 1.4-2.56 3.343-2.733 5.936-.084 1.284.023 2.582.328 3.966.142.646.093 1.14-.156 1.553-.315.523-.759.777-1.357.777l-.123-.003M17.853 19.767c-.654 0-1.225-.395-1.531-1.057-.48-1.036-1.098-1.811-1.89-2.368a5.403 5.403 0 0 0-3.167-.993c-.363 0-.74.033-1.121.098-.806.136-1.593.356-2.355.568l-.31.086a1.845 1.845 0 0 1-.496.067c-.73 0-1.363-.419-1.576-1.043-.318-.93.085-1.817.981-2.153 1.734-.652 3.319-.932 5.3-.934 3.433.117 6.087 1.936 7.652 5.26.197.418.213.926.042 1.393-.152.417-.436.746-.778.904-.247.114-.5.172-.751.172M32.355 63.537c-3.769-.032-6.654-2.302-7.723-6.08a.739.739 0 0 1 .067-.003c.06 0 .1.008.115.014.382.143.756.311 1.13.479.376.168.751.337 1.135.484 1.787.68 3.584 1.024 5.34 1.024 1.594 0 3.194-.285 4.753-.846.827-.298 1.634-.656 2.416-1.002l.286-.126c.12-.053.204-.083.25-.09-.007.02-.013.073-.04.162-.908 3.17-3.202 5.337-6.135 5.798-.368.057-.738.095-1.108.133l-.486.053zM40.053 49.083a2.683 2.683 0 0 1-2.67-2.68c.004-1.47 1.221-2.665 2.712-2.665 1.463.01 2.673 1.232 2.664 2.665a2.667 2.667 0 0 1-2.69 2.68h-.016zM24.643 49.083a2.64 2.64 0 0 1-1.881-.784A2.668 2.668 0 0 1 22 46.394a2.647 2.647 0 0 1 2.673-2.656 2.662 2.662 0 0 1 1.906.787c.503.51.776 1.195.768 1.929-.015 1.474-1.196 2.63-2.688 2.63h-.016z"/>
    </g>
</svg>
