<svg xmlns="http://www.w3.org/2000/svg" width="100" height="54" viewBox="0 0 100 54">
    <g fill="none" fill-rule="evenodd">
        <g fill="#0063AE">
            <path d="M12.458 48.656l-9.203-1.079c-.25-.03-.502-.037-.752-.071-1.064-.148-1.611-.805-1.498-1.88.134-1.273.818-1.534 1.662-1.437 5.289.61 10.577 1.217 15.866 1.824 3.074.353 6.147.699 9.22 1.053 1.681.194 2.098 1.354 1.394 2.749.13 1.223.462 2.204.227 2.787-.217.539-1.041.91-1.6.914-8.648.055-17.295.039-25.943.039-.144 0-.287-.004-.43-.005-.796-.004-1.34-.483-1.397-1.553-.061-1.183.536-1.682 1.342-1.781 1.858-.23 3.717-.425 5.576-.639 1.855-.214 3.71-.433 5.566-.649l-.03-.272M6.357 43.675l5.222-.633v-.247c-2.573-.304-5.146-.608-7.72-.91-.178-.022-.357-.028-.536-.045-.876-.087-1.473-.63-1.389-1.859.079-1.151.703-1.556 1.537-1.46 1.68.19 3.358.375 5.037.57 6.178.72 12.355 1.448 18.533 2.159.714.082 1.345.394 1.37 1.408.013.554-.296 1.198-.59 1.655-.168.26-.595.258-.911.318-4.895.918-9.785.757-14.68-.051-1.951-.322-3.917-.481-5.876-.715l.003-.19M7.237 8.78l4.196-.48.018-.245c-.288-.067-.576-.163-.867-.196-2.643-.304-5.287-.597-7.93-.894C1.46 6.829.943 6.26.994 5.145c.05-1.117.655-1.642 1.823-1.507 8.073.931 16.145 1.878 24.218 2.806.826.096 1.418.554 1.419 1.7.001 1.156-.61 1.526-1.424 1.687-4.617.915-9.218.514-13.825-.144-1.987-.283-3.982-.469-5.974-.698l.005-.21M8.134 14.059l2.42-.34.021-.25c-1.313-.17-2.625-.349-3.939-.507-1.07-.129-2.142-.25-3.216-.345-.852-.075-1.483-.493-1.51-1.74-.023-1.071.624-1.704 1.667-1.587 5.287.595 10.573 1.221 15.86 1.832 2.213.256 4.428.505 6.643.752.842.094 1.504.507 1.481 1.77-.02 1.084-.583 1.471-1.354 1.634-3.584.755-7.152.26-10.722-.166-2.447-.291-4.894-.59-7.341-.885l-.01-.168M7.234 38.017l3.491-.42.008-.23-4.91-.598c-.607-.074-1.213-.148-1.82-.225-.807-.101-1.286-.68-1.225-1.752.066-1.155.656-1.612 1.5-1.518 2.321.26 4.642.528 6.964.794 4.748.544 9.496 1.095 14.245 1.63 1.523.17 2.08.62 2.083 1.765.004 1.152-.551 1.534-2.056 1.82-5.035.954-10.007-.188-14.999-.687-1.097-.11-2.192-.263-3.288-.396l.007-.183M1.067 2.971C.657 1.501 1.093.643 2.472.627 5.667.587 8.862.6 12.057.602c5.17.002 10.339.01 15.508.016.216 0 .433-.018.646.011.746.101 1.205.62 1.211 1.64.006.949-.405 1.537-1.108 1.603-3.714.348-7.397 1.25-11.156.745C12.445 3.983 7.721 3.505 3 2.98c-.592-.066-1.192-.009-1.933-.009M8.169 32.826l1.683-.32.005-.191c-1.636-.206-3.271-.428-4.91-.61-.897-.098-1.453-.632-1.347-1.874.101-1.181.747-1.506 1.565-1.411 6.646.77 13.292 1.55 19.938 2.3.87.098 1.644.379 1.641 1.709-.004 1.426-.86 1.593-1.74 1.752-4.217.762-8.368-.386-12.548-.69-1.396-.102-2.789-.3-4.183-.455-.035-.004-.09-.005-.1-.032-.016-.043-.004-.106-.004-.178M9.712 18.476c-1.814-.216-3.625-.453-5.44-.636-.91-.091-1.554-.505-1.504-1.858.039-1.067.662-1.537 1.765-1.41 6.9.79 13.8 1.588 20.701 2.358.864.096 1.527.5 1.514 1.723-.011 1.22-.691 1.544-1.543 1.69-4.008.69-7.942-.482-11.91-.742-1.433-.094-2.86-.326-4.474-.516l.918-.356-.027-.253M6.58 23.992c5.96.684 11.92 1.37 17.88 2.051.82.094 1.522.402 1.518 1.706-.005 1.298-.69 1.697-1.524 1.662-2.714-.113-5.428-.228-8.138-.441a79.32 79.32 0 0 1-6.422-.754 27.597 27.597 0 0 1-4.673-1.163c-.392-.137-.886-1.099-.856-1.635.03-.529.613-1.118 1.053-1.45.297-.222.768-.042 1.161-.042v.066M23.604 24.842c-5.943-.678-12.087-1.377-18.229-2.089-.389-.045-.902-.025-1.125-.33-.326-.447-.632-1.177-.603-1.757.052-1.01.692-1.33 1.424-1.252 2.252.243 4.504.474 6.754.73 3.965.448 7.929.91 11.893 1.367.107.012.215.022.322.036 1.483.188 2.02.717 1.946 1.92-.07 1.176-.626 1.53-2.382 1.375"/>
        </g>
        <g fill="#E20613">
            <path d="M46.8 48.656l-9.203-1.079c-.25-.03-.502-.037-.751-.071-1.065-.148-1.612-.805-1.499-1.88.135-1.273.818-1.534 1.662-1.437 5.289.61 10.578 1.217 15.866 1.824 3.074.353 6.148.699 9.22 1.053 1.681.194 2.098 1.354 1.395 2.749.129 1.223.462 2.204.226 2.787-.216.539-1.041.91-1.6.914-8.648.055-17.295.039-25.943.039-.144 0-.287-.004-.43-.005-.796-.004-1.34-.483-1.397-1.553-.061-1.183.536-1.682 1.342-1.781 1.858-.23 3.717-.425 5.576-.639 1.856-.214 3.71-.433 5.566-.649l-.03-.272M40.7 43.675l5.222-.633v-.247c-2.573-.304-5.147-.608-7.72-.91-.179-.022-.358-.028-.537-.045-.876-.087-1.473-.63-1.389-1.859.079-1.151.703-1.556 1.537-1.46 1.68.19 3.358.375 5.037.57 6.178.72 12.355 1.448 18.533 2.159.714.082 1.345.394 1.37 1.408.013.554-.296 1.198-.59 1.655-.168.26-.595.258-.911.318-4.895.918-9.785.757-14.68-.051-1.951-.322-3.917-.481-5.876-.715l.004-.19M41.579 8.78l4.196-.48.018-.245c-.288-.067-.576-.163-.867-.196-2.643-.304-5.287-.597-7.93-.894-1.194-.136-1.71-.704-1.659-1.82.05-1.117.655-1.642 1.823-1.507 8.073.931 16.145 1.878 24.218 2.806.826.096 1.418.554 1.42 1.7 0 1.156-.61 1.526-1.424 1.687-4.618.915-9.22.514-13.826-.144-1.987-.283-3.982-.469-5.974-.698l.005-.21M42.476 14.059l2.42-.34.021-.25c-1.313-.17-2.625-.349-3.938-.507-1.071-.129-2.143-.25-3.217-.345-.852-.075-1.483-.493-1.51-1.74-.023-1.071.624-1.704 1.667-1.587 5.287.595 10.573 1.221 15.86 1.832 2.214.256 4.429.505 6.643.752.842.094 1.504.507 1.481 1.77-.02 1.084-.583 1.471-1.354 1.634-3.584.755-7.151.26-10.722-.166-2.447-.291-4.894-.59-7.341-.885l-.01-.168M41.576 38.017l3.491-.42.009-.23-4.911-.598c-.607-.074-1.213-.148-1.82-.225-.806-.101-1.286-.68-1.225-1.752.067-1.155.656-1.612 1.5-1.518 2.321.26 4.643.528 6.964.794 4.748.544 9.496 1.095 14.245 1.63 1.523.17 2.08.62 2.083 1.765.004 1.152-.551 1.534-2.056 1.82-5.035.954-10.007-.188-14.999-.687-1.097-.11-2.192-.263-3.288-.396l.007-.183M35.409 2.971c-.41-1.47.026-2.328 1.405-2.344 3.195-.04 6.39-.026 9.585-.025 5.17.002 10.339.01 15.509.016.215 0 .432-.018.645.011.746.101 1.205.62 1.211 1.64.007.949-.405 1.537-1.108 1.603-3.714.348-7.397 1.25-11.156.745-4.713-.634-9.437-1.112-14.158-1.637-.592-.066-1.192-.009-1.933-.009M42.51 32.826l1.684-.32.005-.191c-1.636-.206-3.271-.428-4.909-.61-.898-.098-1.454-.632-1.348-1.874.101-1.181.747-1.506 1.565-1.411 6.646.77 13.292 1.55 19.938 2.3.87.098 1.645.379 1.641 1.709-.004 1.426-.86 1.593-1.74 1.752-4.217.762-8.368-.386-12.548-.69-1.396-.102-2.789-.3-4.183-.455-.035-.004-.09-.005-.1-.032-.016-.043-.004-.106-.004-.178M44.054 18.476c-1.813-.216-3.625-.453-5.44-.636-.91-.091-1.554-.505-1.504-1.858.039-1.067.662-1.537 1.765-1.41 6.9.79 13.8 1.588 20.702 2.358.863.096 1.526.5 1.514 1.723-.012 1.22-.692 1.544-1.544 1.69-4.008.69-7.942-.482-11.91-.742-1.433-.094-2.86-.326-4.474-.516l.918-.356-.027-.253M40.922 23.992c5.96.684 11.92 1.37 17.88 2.051.82.094 1.522.402 1.518 1.706-.005 1.298-.69 1.697-1.524 1.662-2.714-.113-5.428-.228-8.138-.441a79.32 79.32 0 0 1-6.421-.754 27.597 27.597 0 0 1-4.674-1.163c-.392-.137-.886-1.099-.856-1.635.03-.529.613-1.118 1.053-1.45.297-.222.768-.042 1.161-.042v.066M57.946 24.842c-5.943-.678-12.086-1.377-18.229-2.089-.389-.045-.902-.025-1.125-.33-.325-.447-.632-1.177-.602-1.757.05-1.01.69-1.33 1.423-1.252 2.252.243 4.504.474 6.754.73 3.965.448 7.929.91 11.893 1.367.107.012.215.022.322.036 1.483.188 2.02.717 1.946 1.92-.07 1.176-.626 1.53-2.382 1.375"/>
        </g>
        <g fill="#0063AE">
            <path d="M82.287 48.656l-9.203-1.079c-.25-.03-.502-.037-.752-.071-1.064-.148-1.611-.805-1.498-1.88.134-1.273.818-1.534 1.662-1.437 5.289.61 10.577 1.217 15.866 1.824 3.074.353 6.147.699 9.22 1.053 1.681.194 2.098 1.354 1.394 2.749.13 1.223.462 2.204.227 2.787-.217.539-1.041.91-1.6.914-8.648.055-17.295.039-25.943.039-.144 0-.287-.004-.43-.005-.796-.004-1.34-.483-1.397-1.553-.062-1.183.536-1.682 1.342-1.781 1.857-.23 3.717-.425 5.576-.639 1.855-.214 3.71-.433 5.566-.649l-.03-.272M76.186 43.675l5.222-.633v-.247c-2.573-.304-5.146-.608-7.72-.91-.178-.022-.358-.028-.536-.045-.876-.087-1.473-.63-1.39-1.859.08-1.151.704-1.556 1.538-1.46 1.68.19 3.358.375 5.037.57 6.178.72 12.355 1.448 18.533 2.159.714.082 1.345.394 1.37 1.408.013.554-.296 1.198-.59 1.655-.168.26-.595.258-.911.318-4.895.918-9.785.757-14.68-.051-1.951-.322-3.917-.481-5.876-.715l.003-.19M77.066 8.78l4.196-.48.018-.245c-.289-.067-.576-.163-.867-.196-2.643-.304-5.287-.597-7.93-.894-1.194-.136-1.71-.704-1.659-1.82.05-1.117.655-1.642 1.823-1.507 8.073.931 16.145 1.878 24.218 2.806.826.096 1.418.554 1.419 1.7.001 1.156-.61 1.526-1.424 1.687-4.617.915-9.218.514-13.825-.144-1.987-.283-3.982-.469-5.974-.698l.005-.21M77.963 14.059l2.42-.34.021-.25c-1.313-.17-2.625-.349-3.939-.507-1.07-.129-2.143-.25-3.216-.345-.853-.075-1.483-.493-1.51-1.74-.023-1.071.624-1.704 1.667-1.587 5.287.595 10.573 1.221 15.86 1.832 2.213.256 4.428.505 6.643.752.842.094 1.504.507 1.481 1.77-.02 1.084-.583 1.471-1.354 1.634-3.584.755-7.152.26-10.722-.166-2.447-.291-4.894-.59-7.341-.885l-.01-.168M77.063 38.017l3.491-.42.008-.23-4.91-.598c-.607-.074-1.214-.148-1.82-.225-.807-.101-1.286-.68-1.225-1.752.066-1.155.656-1.612 1.5-1.518 2.321.26 4.642.528 6.963.794 4.749.544 9.497 1.095 14.246 1.63 1.523.17 2.08.62 2.083 1.765.004 1.152-.551 1.534-2.056 1.82-5.035.954-10.007-.188-14.999-.687-1.097-.11-2.192-.263-3.289-.396l.008-.183M70.896 2.971c-.411-1.47.026-2.328 1.405-2.344C75.496.587 78.69.6 81.886.602c5.17.002 10.339.01 15.508.016.216 0 .433-.018.646.011.746.101 1.205.62 1.211 1.64.006.949-.405 1.537-1.108 1.603-3.714.348-7.397 1.25-11.156.745-4.713-.634-9.437-1.112-14.158-1.637-.592-.066-1.192-.009-1.933-.009M77.998 32.826l1.683-.32.005-.191c-1.636-.206-3.271-.428-4.91-.61-.897-.098-1.453-.632-1.347-1.874.101-1.181.747-1.506 1.565-1.411 6.646.77 13.291 1.55 19.938 2.3.87.098 1.644.379 1.641 1.709-.004 1.426-.86 1.593-1.74 1.752-4.217.762-8.368-.386-12.548-.69-1.396-.102-2.789-.3-4.183-.455-.035-.004-.09-.005-.1-.032-.016-.043-.004-.106-.004-.178M79.541 18.476c-1.814-.216-3.625-.453-5.44-.636-.91-.091-1.554-.505-1.505-1.858.04-1.067.663-1.537 1.766-1.41 6.9.79 13.8 1.588 20.701 2.358.863.096 1.526.5 1.514 1.723-.011 1.22-.692 1.544-1.543 1.69-4.009.69-7.942-.482-11.91-.742-1.433-.094-2.86-.326-4.474-.516l.918-.356-.027-.253M76.408 23.992c5.96.684 11.92 1.37 17.881 2.051.82.094 1.522.402 1.518 1.706-.005 1.298-.69 1.697-1.524 1.662-2.714-.113-5.428-.228-8.138-.441a79.32 79.32 0 0 1-6.422-.754 27.597 27.597 0 0 1-4.673-1.163c-.392-.137-.886-1.099-.856-1.635.03-.529.613-1.118 1.053-1.45.297-.222.768-.042 1.161-.042v.066M93.433 24.842c-5.943-.678-12.087-1.377-18.229-2.089-.39-.045-.902-.025-1.125-.33-.326-.447-.632-1.177-.603-1.757.052-1.01.691-1.33 1.424-1.252 2.252.243 4.504.474 6.754.73 3.965.448 7.929.91 11.893 1.367.107.012.215.022.322.036 1.483.188 2.02.717 1.946 1.92-.071 1.176-.626 1.53-2.382 1.375"/>
        </g>
    </g>
</svg>
